<?xml version="1.0" encoding="utf-8" standalone="no"?>
<!DOCTYPE svg PUBLIC "-//W3C//DTD SVG 1.1//EN"
  "http://www.w3.org/Graphics/SVG/1.1/DTD/svg11.dtd">
<svg xmlns:xlink="http://www.w3.org/1999/xlink" width="460.8pt" height="345.6pt" viewBox="0 0 460.8 345.6" xmlns="http://www.w3.org/2000/svg" version="1.1">
 <metadata>
  <rdf:RDF xmlns:dc="http://purl.org/dc/elements/1.1/" xmlns:cc="http://creativecommons.org/ns#" xmlns:rdf="http://www.w3.org/1999/02/22-rdf-syntax-ns#">
   <cc:Work>
    <dc:type rdf:resource="http://purl.org/dc/dcmitype/StillImage"/>
    <dc:date>2024-12-27T11:33:37.595579</dc:date>
    <dc:format>image/svg+xml</dc:format>
    <dc:creator>
     <cc:Agent>
      <dc:title>Matplotlib v3.6.3, https://matplotlib.org/</dc:title>
     </cc:Agent>
    </dc:creator>
   </cc:Work>
  </rdf:RDF>
 </metadata>
 <defs>
  <style type="text/css">*{stroke-linejoin: round; stroke-linecap: butt}</style>
 </defs>
 <g id="figure_1">
  <g id="patch_1">
   <path d="M 0 345.6 
L 460.8 345.6 
L 460.8 0 
L 0 0 
z
" style="fill: #ffffff"/>
  </g>
  <g id="axes_1">
   <g id="patch_2">
    <path d="M 57.6 307.584 
L 414.72 307.584 
L 414.72 41.472 
L 57.6 41.472 
z
" style="fill: #ffffff"/>
   </g>
   <g id="matplotlib.axis_1">
    <g id="xtick_1">
     <g id="line2d_1">
      <path d="M 73.832727 307.584 
L 73.832727 41.472 
" clip-path="url(#p4b533b0169)" style="fill: none; stroke: #cccccc; stroke-width: 0.8; stroke-linecap: round"/>
     </g>
     <g id="text_1">
      <!-- 0 -->
      <g style="fill: #262626" transform="translate(70.651477 322.182437) scale(0.1 -0.1)">
       <defs>
        <path id="DejaVuSans-30" d="M 2034 4250 
Q 1547 4250 1301 3770 
Q 1056 3291 1056 2328 
Q 1056 1369 1301 889 
Q 1547 409 2034 409 
Q 2525 409 2770 889 
Q 3016 1369 3016 2328 
Q 3016 3291 2770 3770 
Q 2525 4250 2034 4250 
z
M 2034 4750 
Q 2819 4750 3233 4129 
Q 3647 3509 3647 2328 
Q 3647 1150 3233 529 
Q 2819 -91 2034 -91 
Q 1250 -91 836 529 
Q 422 1150 422 2328 
Q 422 3509 836 4129 
Q 1250 4750 2034 4750 
z
" transform="scale(0.015625)"/>
       </defs>
       <use xlink:href="#DejaVuSans-30"/>
      </g>
     </g>
    </g>
    <g id="xtick_2">
     <g id="line2d_2">
      <path d="M 120.211948 307.584 
L 120.211948 41.472 
" clip-path="url(#p4b533b0169)" style="fill: none; stroke: #cccccc; stroke-width: 0.8; stroke-linecap: round"/>
     </g>
     <g id="text_2">
      <!-- 200 -->
      <g style="fill: #262626" transform="translate(110.668198 322.182437) scale(0.1 -0.1)">
       <defs>
        <path id="DejaVuSans-32" d="M 1228 531 
L 3431 531 
L 3431 0 
L 469 0 
L 469 531 
Q 828 903 1448 1529 
Q 2069 2156 2228 2338 
Q 2531 2678 2651 2914 
Q 2772 3150 2772 3378 
Q 2772 3750 2511 3984 
Q 2250 4219 1831 4219 
Q 1534 4219 1204 4116 
Q 875 4013 500 3803 
L 500 4441 
Q 881 4594 1212 4672 
Q 1544 4750 1819 4750 
Q 2544 4750 2975 4387 
Q 3406 4025 3406 3419 
Q 3406 3131 3298 2873 
Q 3191 2616 2906 2266 
Q 2828 2175 2409 1742 
Q 1991 1309 1228 531 
z
" transform="scale(0.015625)"/>
       </defs>
       <use xlink:href="#DejaVuSans-32"/>
       <use xlink:href="#DejaVuSans-30" x="63.623047"/>
       <use xlink:href="#DejaVuSans-30" x="127.246094"/>
      </g>
     </g>
    </g>
    <g id="xtick_3">
     <g id="line2d_3">
      <path d="M 166.591169 307.584 
L 166.591169 41.472 
" clip-path="url(#p4b533b0169)" style="fill: none; stroke: #cccccc; stroke-width: 0.8; stroke-linecap: round"/>
     </g>
     <g id="text_3">
      <!-- 400 -->
      <g style="fill: #262626" transform="translate(157.047419 322.182437) scale(0.1 -0.1)">
       <defs>
        <path id="DejaVuSans-34" d="M 2419 4116 
L 825 1625 
L 2419 1625 
L 2419 4116 
z
M 2253 4666 
L 3047 4666 
L 3047 1625 
L 3713 1625 
L 3713 1100 
L 3047 1100 
L 3047 0 
L 2419 0 
L 2419 1100 
L 313 1100 
L 313 1709 
L 2253 4666 
z
" transform="scale(0.015625)"/>
       </defs>
       <use xlink:href="#DejaVuSans-34"/>
       <use xlink:href="#DejaVuSans-30" x="63.623047"/>
       <use xlink:href="#DejaVuSans-30" x="127.246094"/>
      </g>
     </g>
    </g>
    <g id="xtick_4">
     <g id="line2d_4">
      <path d="M 212.97039 307.584 
L 212.97039 41.472 
" clip-path="url(#p4b533b0169)" style="fill: none; stroke: #cccccc; stroke-width: 0.8; stroke-linecap: round"/>
     </g>
     <g id="text_4">
      <!-- 600 -->
      <g style="fill: #262626" transform="translate(203.42664 322.182437) scale(0.1 -0.1)">
       <defs>
        <path id="DejaVuSans-36" d="M 2113 2584 
Q 1688 2584 1439 2293 
Q 1191 2003 1191 1497 
Q 1191 994 1439 701 
Q 1688 409 2113 409 
Q 2538 409 2786 701 
Q 3034 994 3034 1497 
Q 3034 2003 2786 2293 
Q 2538 2584 2113 2584 
z
M 3366 4563 
L 3366 3988 
Q 3128 4100 2886 4159 
Q 2644 4219 2406 4219 
Q 1781 4219 1451 3797 
Q 1122 3375 1075 2522 
Q 1259 2794 1537 2939 
Q 1816 3084 2150 3084 
Q 2853 3084 3261 2657 
Q 3669 2231 3669 1497 
Q 3669 778 3244 343 
Q 2819 -91 2113 -91 
Q 1303 -91 875 529 
Q 447 1150 447 2328 
Q 447 3434 972 4092 
Q 1497 4750 2381 4750 
Q 2619 4750 2861 4703 
Q 3103 4656 3366 4563 
z
" transform="scale(0.015625)"/>
       </defs>
       <use xlink:href="#DejaVuSans-36"/>
       <use xlink:href="#DejaVuSans-30" x="63.623047"/>
       <use xlink:href="#DejaVuSans-30" x="127.246094"/>
      </g>
     </g>
    </g>
    <g id="xtick_5">
     <g id="line2d_5">
      <path d="M 259.34961 307.584 
L 259.34961 41.472 
" clip-path="url(#p4b533b0169)" style="fill: none; stroke: #cccccc; stroke-width: 0.8; stroke-linecap: round"/>
     </g>
     <g id="text_5">
      <!-- 800 -->
      <g style="fill: #262626" transform="translate(249.80586 322.182437) scale(0.1 -0.1)">
       <defs>
        <path id="DejaVuSans-38" d="M 2034 2216 
Q 1584 2216 1326 1975 
Q 1069 1734 1069 1313 
Q 1069 891 1326 650 
Q 1584 409 2034 409 
Q 2484 409 2743 651 
Q 3003 894 3003 1313 
Q 3003 1734 2745 1975 
Q 2488 2216 2034 2216 
z
M 1403 2484 
Q 997 2584 770 2862 
Q 544 3141 544 3541 
Q 544 4100 942 4425 
Q 1341 4750 2034 4750 
Q 2731 4750 3128 4425 
Q 3525 4100 3525 3541 
Q 3525 3141 3298 2862 
Q 3072 2584 2669 2484 
Q 3125 2378 3379 2068 
Q 3634 1759 3634 1313 
Q 3634 634 3220 271 
Q 2806 -91 2034 -91 
Q 1263 -91 848 271 
Q 434 634 434 1313 
Q 434 1759 690 2068 
Q 947 2378 1403 2484 
z
M 1172 3481 
Q 1172 3119 1398 2916 
Q 1625 2713 2034 2713 
Q 2441 2713 2670 2916 
Q 2900 3119 2900 3481 
Q 2900 3844 2670 4047 
Q 2441 4250 2034 4250 
Q 1625 4250 1398 4047 
Q 1172 3844 1172 3481 
z
" transform="scale(0.015625)"/>
       </defs>
       <use xlink:href="#DejaVuSans-38"/>
       <use xlink:href="#DejaVuSans-30" x="63.623047"/>
       <use xlink:href="#DejaVuSans-30" x="127.246094"/>
      </g>
     </g>
    </g>
    <g id="xtick_6">
     <g id="line2d_6">
      <path d="M 305.728831 307.584 
L 305.728831 41.472 
" clip-path="url(#p4b533b0169)" style="fill: none; stroke: #cccccc; stroke-width: 0.8; stroke-linecap: round"/>
     </g>
     <g id="text_6">
      <!-- 1000 -->
      <g style="fill: #262626" transform="translate(293.003831 322.182437) scale(0.1 -0.1)">
       <defs>
        <path id="DejaVuSans-31" d="M 794 531 
L 1825 531 
L 1825 4091 
L 703 3866 
L 703 4441 
L 1819 4666 
L 2450 4666 
L 2450 531 
L 3481 531 
L 3481 0 
L 794 0 
L 794 531 
z
" transform="scale(0.015625)"/>
       </defs>
       <use xlink:href="#DejaVuSans-31"/>
       <use xlink:href="#DejaVuSans-30" x="63.623047"/>
       <use xlink:href="#DejaVuSans-30" x="127.246094"/>
       <use xlink:href="#DejaVuSans-30" x="190.869141"/>
      </g>
     </g>
    </g>
    <g id="xtick_7">
     <g id="line2d_7">
      <path d="M 352.108052 307.584 
L 352.108052 41.472 
" clip-path="url(#p4b533b0169)" style="fill: none; stroke: #cccccc; stroke-width: 0.8; stroke-linecap: round"/>
     </g>
     <g id="text_7">
      <!-- 1200 -->
      <g style="fill: #262626" transform="translate(339.383052 322.182437) scale(0.1 -0.1)">
       <use xlink:href="#DejaVuSans-31"/>
       <use xlink:href="#DejaVuSans-32" x="63.623047"/>
       <use xlink:href="#DejaVuSans-30" x="127.246094"/>
       <use xlink:href="#DejaVuSans-30" x="190.869141"/>
      </g>
     </g>
    </g>
    <g id="xtick_8">
     <g id="line2d_8">
      <path d="M 398.487273 307.584 
L 398.487273 41.472 
" clip-path="url(#p4b533b0169)" style="fill: none; stroke: #cccccc; stroke-width: 0.8; stroke-linecap: round"/>
     </g>
     <g id="text_8">
      <!-- 1400 -->
      <g style="fill: #262626" transform="translate(385.762273 322.182437) scale(0.1 -0.1)">
       <use xlink:href="#DejaVuSans-31"/>
       <use xlink:href="#DejaVuSans-34" x="63.623047"/>
       <use xlink:href="#DejaVuSans-30" x="127.246094"/>
       <use xlink:href="#DejaVuSans-30" x="190.869141"/>
      </g>
     </g>
    </g>
    <g id="text_9">
     <!-- Time /days -->
     <g style="fill: #262626" transform="translate(208.850625 335.860562) scale(0.1 -0.1)">
      <defs>
       <path id="DejaVuSans-54" d="M -19 4666 
L 3928 4666 
L 3928 4134 
L 2272 4134 
L 2272 0 
L 1638 0 
L 1638 4134 
L -19 4134 
L -19 4666 
z
" transform="scale(0.015625)"/>
       <path id="DejaVuSans-69" d="M 603 3500 
L 1178 3500 
L 1178 0 
L 603 0 
L 603 3500 
z
M 603 4863 
L 1178 4863 
L 1178 4134 
L 603 4134 
L 603 4863 
z
" transform="scale(0.015625)"/>
       <path id="DejaVuSans-6d" d="M 3328 2828 
Q 3544 3216 3844 3400 
Q 4144 3584 4550 3584 
Q 5097 3584 5394 3201 
Q 5691 2819 5691 2113 
L 5691 0 
L 5113 0 
L 5113 2094 
Q 5113 2597 4934 2840 
Q 4756 3084 4391 3084 
Q 3944 3084 3684 2787 
Q 3425 2491 3425 1978 
L 3425 0 
L 2847 0 
L 2847 2094 
Q 2847 2600 2669 2842 
Q 2491 3084 2119 3084 
Q 1678 3084 1418 2786 
Q 1159 2488 1159 1978 
L 1159 0 
L 581 0 
L 581 3500 
L 1159 3500 
L 1159 2956 
Q 1356 3278 1631 3431 
Q 1906 3584 2284 3584 
Q 2666 3584 2933 3390 
Q 3200 3197 3328 2828 
z
" transform="scale(0.015625)"/>
       <path id="DejaVuSans-65" d="M 3597 1894 
L 3597 1613 
L 953 1613 
Q 991 1019 1311 708 
Q 1631 397 2203 397 
Q 2534 397 2845 478 
Q 3156 559 3463 722 
L 3463 178 
Q 3153 47 2828 -22 
Q 2503 -91 2169 -91 
Q 1331 -91 842 396 
Q 353 884 353 1716 
Q 353 2575 817 3079 
Q 1281 3584 2069 3584 
Q 2775 3584 3186 3129 
Q 3597 2675 3597 1894 
z
M 3022 2063 
Q 3016 2534 2758 2815 
Q 2500 3097 2075 3097 
Q 1594 3097 1305 2825 
Q 1016 2553 972 2059 
L 3022 2063 
z
" transform="scale(0.015625)"/>
       <path id="DejaVuSans-20" transform="scale(0.015625)"/>
       <path id="DejaVuSans-2f" d="M 1625 4666 
L 2156 4666 
L 531 -594 
L 0 -594 
L 1625 4666 
z
" transform="scale(0.015625)"/>
       <path id="DejaVuSans-64" d="M 2906 2969 
L 2906 4863 
L 3481 4863 
L 3481 0 
L 2906 0 
L 2906 525 
Q 2725 213 2448 61 
Q 2172 -91 1784 -91 
Q 1150 -91 751 415 
Q 353 922 353 1747 
Q 353 2572 751 3078 
Q 1150 3584 1784 3584 
Q 2172 3584 2448 3432 
Q 2725 3281 2906 2969 
z
M 947 1747 
Q 947 1113 1208 752 
Q 1469 391 1925 391 
Q 2381 391 2643 752 
Q 2906 1113 2906 1747 
Q 2906 2381 2643 2742 
Q 2381 3103 1925 3103 
Q 1469 3103 1208 2742 
Q 947 2381 947 1747 
z
" transform="scale(0.015625)"/>
       <path id="DejaVuSans-61" d="M 2194 1759 
Q 1497 1759 1228 1600 
Q 959 1441 959 1056 
Q 959 750 1161 570 
Q 1363 391 1709 391 
Q 2188 391 2477 730 
Q 2766 1069 2766 1631 
L 2766 1759 
L 2194 1759 
z
M 3341 1997 
L 3341 0 
L 2766 0 
L 2766 531 
Q 2569 213 2275 61 
Q 1981 -91 1556 -91 
Q 1019 -91 701 211 
Q 384 513 384 1019 
Q 384 1609 779 1909 
Q 1175 2209 1959 2209 
L 2766 2209 
L 2766 2266 
Q 2766 2663 2505 2880 
Q 2244 3097 1772 3097 
Q 1472 3097 1187 3025 
Q 903 2953 641 2809 
L 641 3341 
Q 956 3463 1253 3523 
Q 1550 3584 1831 3584 
Q 2591 3584 2966 3190 
Q 3341 2797 3341 1997 
z
" transform="scale(0.015625)"/>
       <path id="DejaVuSans-79" d="M 2059 -325 
Q 1816 -950 1584 -1140 
Q 1353 -1331 966 -1331 
L 506 -1331 
L 506 -850 
L 844 -850 
Q 1081 -850 1212 -737 
Q 1344 -625 1503 -206 
L 1606 56 
L 191 3500 
L 800 3500 
L 1894 763 
L 2988 3500 
L 3597 3500 
L 2059 -325 
z
" transform="scale(0.015625)"/>
       <path id="DejaVuSans-73" d="M 2834 3397 
L 2834 2853 
Q 2591 2978 2328 3040 
Q 2066 3103 1784 3103 
Q 1356 3103 1142 2972 
Q 928 2841 928 2578 
Q 928 2378 1081 2264 
Q 1234 2150 1697 2047 
L 1894 2003 
Q 2506 1872 2764 1633 
Q 3022 1394 3022 966 
Q 3022 478 2636 193 
Q 2250 -91 1575 -91 
Q 1294 -91 989 -36 
Q 684 19 347 128 
L 347 722 
Q 666 556 975 473 
Q 1284 391 1588 391 
Q 1994 391 2212 530 
Q 2431 669 2431 922 
Q 2431 1156 2273 1281 
Q 2116 1406 1581 1522 
L 1381 1569 
Q 847 1681 609 1914 
Q 372 2147 372 2553 
Q 372 3047 722 3315 
Q 1072 3584 1716 3584 
Q 2034 3584 2315 3537 
Q 2597 3491 2834 3397 
z
" transform="scale(0.015625)"/>
      </defs>
      <use xlink:href="#DejaVuSans-54"/>
      <use xlink:href="#DejaVuSans-69" x="57.958984"/>
      <use xlink:href="#DejaVuSans-6d" x="85.742188"/>
      <use xlink:href="#DejaVuSans-65" x="183.154297"/>
      <use xlink:href="#DejaVuSans-20" x="244.677734"/>
      <use xlink:href="#DejaVuSans-2f" x="276.464844"/>
      <use xlink:href="#DejaVuSans-64" x="310.15625"/>
      <use xlink:href="#DejaVuSans-61" x="373.632812"/>
      <use xlink:href="#DejaVuSans-79" x="434.912109"/>
      <use xlink:href="#DejaVuSans-73" x="494.091797"/>
     </g>
    </g>
   </g>
   <g id="matplotlib.axis_2">
    <g id="ytick_1">
     <g id="line2d_9">
      <path d="M 57.6 295.488 
L 414.72 295.488 
" clip-path="url(#p4b533b0169)" style="fill: none; stroke: #cccccc; stroke-width: 0.8; stroke-linecap: round"/>
     </g>
     <g id="text_10">
      <!-- 0 -->
      <g style="fill: #262626" transform="translate(44.2375 299.287219) scale(0.1 -0.1)">
       <use xlink:href="#DejaVuSans-30"/>
      </g>
     </g>
    </g>
    <g id="ytick_2">
     <g id="line2d_10">
      <path d="M 57.6 251.928652 
L 414.72 251.928652 
" clip-path="url(#p4b533b0169)" style="fill: none; stroke: #cccccc; stroke-width: 0.8; stroke-linecap: round"/>
     </g>
     <g id="text_11">
      <!-- 200 -->
      <g style="fill: #262626" transform="translate(31.5125 255.727871) scale(0.1 -0.1)">
       <use xlink:href="#DejaVuSans-32"/>
       <use xlink:href="#DejaVuSans-30" x="63.623047"/>
       <use xlink:href="#DejaVuSans-30" x="127.246094"/>
      </g>
     </g>
    </g>
    <g id="ytick_3">
     <g id="line2d_11">
      <path d="M 57.6 208.369305 
L 414.72 208.369305 
" clip-path="url(#p4b533b0169)" style="fill: none; stroke: #cccccc; stroke-width: 0.8; stroke-linecap: round"/>
     </g>
     <g id="text_12">
      <!-- 400 -->
      <g style="fill: #262626" transform="translate(31.5125 212.168524) scale(0.1 -0.1)">
       <use xlink:href="#DejaVuSans-34"/>
       <use xlink:href="#DejaVuSans-30" x="63.623047"/>
       <use xlink:href="#DejaVuSans-30" x="127.246094"/>
      </g>
     </g>
    </g>
    <g id="ytick_4">
     <g id="line2d_12">
      <path d="M 57.6 164.809957 
L 414.72 164.809957 
" clip-path="url(#p4b533b0169)" style="fill: none; stroke: #cccccc; stroke-width: 0.8; stroke-linecap: round"/>
     </g>
     <g id="text_13">
      <!-- 600 -->
      <g style="fill: #262626" transform="translate(31.5125 168.609176) scale(0.1 -0.1)">
       <use xlink:href="#DejaVuSans-36"/>
       <use xlink:href="#DejaVuSans-30" x="63.623047"/>
       <use xlink:href="#DejaVuSans-30" x="127.246094"/>
      </g>
     </g>
    </g>
    <g id="ytick_5">
     <g id="line2d_13">
      <path d="M 57.6 121.25061 
L 414.72 121.25061 
" clip-path="url(#p4b533b0169)" style="fill: none; stroke: #cccccc; stroke-width: 0.8; stroke-linecap: round"/>
     </g>
     <g id="text_14">
      <!-- 800 -->
      <g style="fill: #262626" transform="translate(31.5125 125.049828) scale(0.1 -0.1)">
       <use xlink:href="#DejaVuSans-38"/>
       <use xlink:href="#DejaVuSans-30" x="63.623047"/>
       <use xlink:href="#DejaVuSans-30" x="127.246094"/>
      </g>
     </g>
    </g>
    <g id="ytick_6">
     <g id="line2d_14">
      <path d="M 57.6 77.691262 
L 414.72 77.691262 
" clip-path="url(#p4b533b0169)" style="fill: none; stroke: #cccccc; stroke-width: 0.8; stroke-linecap: round"/>
     </g>
     <g id="text_15">
      <!-- 1000 -->
      <g style="fill: #262626" transform="translate(25.15 81.490481) scale(0.1 -0.1)">
       <use xlink:href="#DejaVuSans-31"/>
       <use xlink:href="#DejaVuSans-30" x="63.623047"/>
       <use xlink:href="#DejaVuSans-30" x="127.246094"/>
       <use xlink:href="#DejaVuSans-30" x="190.869141"/>
      </g>
     </g>
    </g>
    <g id="text_16">
     <!-- Number of hosts -->
     <g style="fill: #262626" transform="translate(19.070312 216.00925) rotate(-90) scale(0.1 -0.1)">
      <defs>
       <path id="DejaVuSans-4e" d="M 628 4666 
L 1478 4666 
L 3547 763 
L 3547 4666 
L 4159 4666 
L 4159 0 
L 3309 0 
L 1241 3903 
L 1241 0 
L 628 0 
L 628 4666 
z
" transform="scale(0.015625)"/>
       <path id="DejaVuSans-75" d="M 544 1381 
L 544 3500 
L 1119 3500 
L 1119 1403 
Q 1119 906 1312 657 
Q 1506 409 1894 409 
Q 2359 409 2629 706 
Q 2900 1003 2900 1516 
L 2900 3500 
L 3475 3500 
L 3475 0 
L 2900 0 
L 2900 538 
Q 2691 219 2414 64 
Q 2138 -91 1772 -91 
Q 1169 -91 856 284 
Q 544 659 544 1381 
z
M 1991 3584 
L 1991 3584 
z
" transform="scale(0.015625)"/>
       <path id="DejaVuSans-62" d="M 3116 1747 
Q 3116 2381 2855 2742 
Q 2594 3103 2138 3103 
Q 1681 3103 1420 2742 
Q 1159 2381 1159 1747 
Q 1159 1113 1420 752 
Q 1681 391 2138 391 
Q 2594 391 2855 752 
Q 3116 1113 3116 1747 
z
M 1159 2969 
Q 1341 3281 1617 3432 
Q 1894 3584 2278 3584 
Q 2916 3584 3314 3078 
Q 3713 2572 3713 1747 
Q 3713 922 3314 415 
Q 2916 -91 2278 -91 
Q 1894 -91 1617 61 
Q 1341 213 1159 525 
L 1159 0 
L 581 0 
L 581 4863 
L 1159 4863 
L 1159 2969 
z
" transform="scale(0.015625)"/>
       <path id="DejaVuSans-72" d="M 2631 2963 
Q 2534 3019 2420 3045 
Q 2306 3072 2169 3072 
Q 1681 3072 1420 2755 
Q 1159 2438 1159 1844 
L 1159 0 
L 581 0 
L 581 3500 
L 1159 3500 
L 1159 2956 
Q 1341 3275 1631 3429 
Q 1922 3584 2338 3584 
Q 2397 3584 2469 3576 
Q 2541 3569 2628 3553 
L 2631 2963 
z
" transform="scale(0.015625)"/>
       <path id="DejaVuSans-6f" d="M 1959 3097 
Q 1497 3097 1228 2736 
Q 959 2375 959 1747 
Q 959 1119 1226 758 
Q 1494 397 1959 397 
Q 2419 397 2687 759 
Q 2956 1122 2956 1747 
Q 2956 2369 2687 2733 
Q 2419 3097 1959 3097 
z
M 1959 3584 
Q 2709 3584 3137 3096 
Q 3566 2609 3566 1747 
Q 3566 888 3137 398 
Q 2709 -91 1959 -91 
Q 1206 -91 779 398 
Q 353 888 353 1747 
Q 353 2609 779 3096 
Q 1206 3584 1959 3584 
z
" transform="scale(0.015625)"/>
       <path id="DejaVuSans-66" d="M 2375 4863 
L 2375 4384 
L 1825 4384 
Q 1516 4384 1395 4259 
Q 1275 4134 1275 3809 
L 1275 3500 
L 2222 3500 
L 2222 3053 
L 1275 3053 
L 1275 0 
L 697 0 
L 697 3053 
L 147 3053 
L 147 3500 
L 697 3500 
L 697 3744 
Q 697 4328 969 4595 
Q 1241 4863 1831 4863 
L 2375 4863 
z
" transform="scale(0.015625)"/>
       <path id="DejaVuSans-68" d="M 3513 2113 
L 3513 0 
L 2938 0 
L 2938 2094 
Q 2938 2591 2744 2837 
Q 2550 3084 2163 3084 
Q 1697 3084 1428 2787 
Q 1159 2491 1159 1978 
L 1159 0 
L 581 0 
L 581 4863 
L 1159 4863 
L 1159 2956 
Q 1366 3272 1645 3428 
Q 1925 3584 2291 3584 
Q 2894 3584 3203 3211 
Q 3513 2838 3513 2113 
z
" transform="scale(0.015625)"/>
       <path id="DejaVuSans-74" d="M 1172 4494 
L 1172 3500 
L 2356 3500 
L 2356 3053 
L 1172 3053 
L 1172 1153 
Q 1172 725 1289 603 
Q 1406 481 1766 481 
L 2356 481 
L 2356 0 
L 1766 0 
Q 1100 0 847 248 
Q 594 497 594 1153 
L 594 3053 
L 172 3053 
L 172 3500 
L 594 3500 
L 594 4494 
L 1172 4494 
z
" transform="scale(0.015625)"/>
      </defs>
      <use xlink:href="#DejaVuSans-4e"/>
      <use xlink:href="#DejaVuSans-75" x="74.804688"/>
      <use xlink:href="#DejaVuSans-6d" x="138.183594"/>
      <use xlink:href="#DejaVuSans-62" x="235.595703"/>
      <use xlink:href="#DejaVuSans-65" x="299.072266"/>
      <use xlink:href="#DejaVuSans-72" x="360.595703"/>
      <use xlink:href="#DejaVuSans-20" x="401.708984"/>
      <use xlink:href="#DejaVuSans-6f" x="433.496094"/>
      <use xlink:href="#DejaVuSans-66" x="494.677734"/>
      <use xlink:href="#DejaVuSans-20" x="529.882812"/>
      <use xlink:href="#DejaVuSans-68" x="561.669922"/>
      <use xlink:href="#DejaVuSans-6f" x="625.048828"/>
      <use xlink:href="#DejaVuSans-73" x="686.230469"/>
      <use xlink:href="#DejaVuSans-74" x="738.330078"/>
      <use xlink:href="#DejaVuSans-73" x="777.539062"/>
     </g>
    </g>
   </g>
   <g id="PathCollection_1">
    <defs>
     <path id="mde6cafbc18" d="M 0 3 
C 0.795609 3 1.55874 2.683901 2.12132 2.12132 
C 2.683901 1.55874 3 0.795609 3 0 
C 3 -0.795609 2.683901 -1.55874 2.12132 -2.12132 
C 1.55874 -2.683901 0.795609 -3 0 -3 
C -0.795609 -3 -1.55874 -2.683901 -2.12132 -2.12132 
C -2.683901 -1.55874 -3 -0.795609 -3 0 
C -3 0.795609 -2.683901 1.55874 -2.12132 2.12132 
C -1.55874 2.683901 -0.795609 3 0 3 
z
" style="stroke: #1f77b4"/>
    </defs>
    <g clip-path="url(#p4b533b0169)">
     <use xlink:href="#mde6cafbc18" x="189.780779" y="174.501912" style="fill: #1f77b4; stroke: #1f77b4"/>
    </g>
   </g>
   <g id="line2d_15">
    <path d="M 73.832727 293.310033 
L 81.722831 293.204118 
L 89.380872 292.884908 
L 96.57479 292.368641 
L 103.304584 291.664352 
L 109.338192 290.817561 
L 114.907677 289.822692 
L 120.2451 288.6454 
L 125.118399 287.351029 
L 129.759636 285.8989 
L 134.400873 284.2101 
L 138.810049 282.36808 
L 143.219224 280.280456 
L 147.6284 277.939248 
L 152.037575 275.344867 
L 156.678812 272.353436 
L 161.784173 268.790935 
L 168.049843 264.131727 
L 181.741493 253.853205 
L 186.150669 250.887006 
L 189.863658 248.65694 
L 193.112525 246.956888 
L 196.129329 245.620567 
L 198.914071 244.614786 
L 201.698813 243.842007 
L 204.483556 243.31161 
L 207.036236 243.042409 
L 209.588917 242.980953 
L 212.373659 243.147089 
L 215.158401 243.54855 
L 217.943144 244.173403 
L 220.959948 245.084758 
L 224.208814 246.313361 
L 227.689742 247.878883 
L 231.634794 249.913304 
L 236.276031 252.580089 
L 242.077577 256.188104 
L 263.195207 269.56027 
L 268.996754 272.84632 
L 274.566238 275.744683 
L 279.903661 278.271014 
L 285.241084 280.548393 
L 290.578507 282.582328 
L 295.91593 284.384217 
L 301.485414 286.033562 
L 307.286961 287.522051 
L 313.552631 288.893507 
L 320.050363 290.087863 
L 327.244281 291.177338 
L 334.902322 292.111011 
L 343.488611 292.931388 
L 353.23521 293.633567 
L 364.606241 294.220712 
L 378.065829 294.686298 
L 395.006345 295.041711 
L 398.487273 295.092773 
L 398.487273 295.092773 
" clip-path="url(#p4b533b0169)" style="fill: none; stroke: #ff00ff; stroke-width: 1.5; stroke-linecap: round"/>
   </g>
   <g id="line2d_16">
    <path d="M 73.832727 295.488 
L 90.541181 293.912689 
L 99.12747 292.878906 
L 106.089326 291.826509 
L 112.122935 290.697343 
L 117.460357 289.481692 
L 122.333657 288.152605 
L 126.974894 286.653821 
L 131.152007 285.077341 
L 135.097059 283.360823 
L 138.810049 281.516934 
L 142.523039 279.425606 
L 146.003966 277.216701 
L 149.484894 274.744786 
L 152.965822 271.987733 
L 156.214688 269.138329 
L 159.463554 266.005624 
L 162.712421 262.57507 
L 165.961287 258.834494 
L 169.442215 254.472436 
L 172.923143 249.73771 
L 176.40407 244.629817 
L 180.11706 238.777171 
L 184.062112 232.120039 
L 188.239225 224.613917 
L 192.880463 215.785979 
L 198.217886 205.117378 
L 205.179741 190.644554 
L 221.424072 156.663148 
L 226.993556 145.631634 
L 231.866856 136.454498 
L 236.276031 128.600919 
L 240.453144 121.592628 
L 244.398196 115.380066 
L 248.343248 109.572466 
L 252.288299 104.172287 
L 256.001289 99.458529 
L 259.714279 95.094745 
L 263.427269 91.070072 
L 267.140259 87.371043 
L 270.853248 83.98225 
L 274.566238 80.886942 
L 278.279228 78.06753 
L 282.22428 75.354081 
L 286.169331 72.910159 
L 290.346445 70.592598 
L 294.523558 68.528841 
L 298.932734 66.599922 
L 303.573971 64.818279 
L 308.44727 63.191905 
L 313.552631 61.724508 
L 319.122116 60.363667 
L 324.923662 59.174727 
L 331.421395 58.076771 
L 338.38325 57.127425 
L 346.273354 56.280885 
L 355.091704 55.561231 
L 365.302426 54.953503 
L 377.601705 54.451874 
L 392.917788 54.061149 
L 398.487273 53.963227 
L 398.487273 53.963227 
" clip-path="url(#p4b533b0169)" style="fill: none; stroke: #008000; stroke-width: 1.5; stroke-linecap: round"/>
   </g>
   <g id="line2d_17">
    <path d="M 73.832727 293.310033 
L 81.490769 292.528117 
L 87.988501 291.651631 
L 93.790047 290.656271 
L 99.12747 289.519612 
L 104.000769 288.256839 
L 108.409945 286.893907 
L 112.587058 285.37667 
L 116.53211 283.710916 
L 120.2451 281.907883 
L 123.726028 279.984446 
L 127.206956 277.809667 
L 130.455822 275.529648 
L 133.704688 272.985073 
L 136.953554 270.153099 
L 140.20242 267.010969 
L 143.451286 263.536615 
L 146.700152 259.709409 
L 149.949018 255.511033 
L 153.197884 250.926475 
L 156.44675 245.945111 
L 159.695616 240.561833 
L 163.176544 234.349908 
L 166.657472 227.690088 
L 170.370462 220.118565 
L 174.547576 211.076472 
L 179.188813 200.479164 
L 184.990359 186.641008 
L 202.627061 144.152094 
L 207.268298 133.776148 
L 211.445412 124.977048 
L 215.158401 117.647008 
L 218.871391 110.816171 
L 222.352319 104.883416 
L 225.601185 99.762678 
L 228.850051 95.041203 
L 232.098917 90.710156 
L 235.347783 86.755923 
L 238.59665 83.161217 
L 241.845516 79.906106 
L 245.094382 76.968932 
L 248.343248 74.3271 
L 251.592114 71.957739 
L 255.073042 69.6958 
L 258.55397 67.693696 
L 262.26696 65.815574 
L 266.212011 64.079286 
L 270.389125 62.496833 
L 274.7983 61.074528 
L 279.439537 59.813444 
L 284.544898 58.66255 
L 290.114383 57.641343 
L 296.380053 56.729332 
L 303.341909 55.94801 
L 311.464074 55.271401 
L 320.978611 54.712968 
L 332.581704 54.265632 
L 347.433663 53.927386 
L 368.319231 53.692693 
L 398.487273 53.568 
L 398.487273 53.568 
" clip-path="url(#p4b533b0169)" style="fill: none; stroke-dasharray: 5.55,2.4; stroke-dashoffset: 0; stroke: #008000; stroke-width: 1.5"/>
   </g>
   <g id="line2d_18">
    <path d="M 73.832727 295.488 
L 398.487273 295.488 
L 398.487273 295.488 
" clip-path="url(#p4b533b0169)" style="fill: none; stroke: #000000; stroke-width: 1.5; stroke-linecap: round"/>
   </g>
   <g id="patch_3">
    <path d="M 57.6 307.584 
L 57.6 41.472 
" style="fill: none; stroke: #cccccc; stroke-width: 0.8; stroke-linejoin: miter; stroke-linecap: square"/>
   </g>
   <g id="patch_4">
    <path d="M 57.6 307.584 
L 414.72 307.584 
" style="fill: none; stroke: #cccccc; stroke-width: 0.8; stroke-linejoin: miter; stroke-linecap: square"/>
   </g>
   <g id="text_17">
    <!-- N = 1111, ${\beta}$ = 8.45e-06 , ${\sigma}$ =  1/107,  ${\gamma}$ = 0 -->
    <g style="fill: #262626" transform="translate(137.565 25.375688) scale(0.09 -0.09)">
     <defs>
      <path id="DejaVuSans-3d" d="M 678 2906 
L 4684 2906 
L 4684 2381 
L 678 2381 
L 678 2906 
z
M 678 1631 
L 4684 1631 
L 4684 1100 
L 678 1100 
L 678 1631 
z
" transform="scale(0.015625)"/>
      <path id="DejaVuSans-2c" d="M 750 794 
L 1409 794 
L 1409 256 
L 897 -744 
L 494 -744 
L 750 256 
L 750 794 
z
" transform="scale(0.015625)"/>
      <path id="DejaVuSans-Oblique-3b2" d="M 872 216 
L 572 -1331 
L -6 -1331 
L 928 3478 
Q 1206 4903 2538 4903 
Q 3888 4903 3659 3700 
Q 3503 2844 2894 2531 
Q 3713 2250 3553 1416 
Q 3272 -69 1759 -66 
Q 1097 -63 872 216 
z
M 1019 966 
Q 1259 422 1875 425 
Q 2775 425 2966 1406 
Q 3138 2288 1675 2219 
L 1778 2750 
Q 2909 2731 3106 3750 
Q 3241 4438 2509 4434 
Q 1691 4434 1503 3459 
L 1019 966 
z
" transform="scale(0.015625)"/>
      <path id="DejaVuSans-2e" d="M 684 794 
L 1344 794 
L 1344 0 
L 684 0 
L 684 794 
z
" transform="scale(0.015625)"/>
      <path id="DejaVuSans-35" d="M 691 4666 
L 3169 4666 
L 3169 4134 
L 1269 4134 
L 1269 2991 
Q 1406 3038 1543 3061 
Q 1681 3084 1819 3084 
Q 2600 3084 3056 2656 
Q 3513 2228 3513 1497 
Q 3513 744 3044 326 
Q 2575 -91 1722 -91 
Q 1428 -91 1123 -41 
Q 819 9 494 109 
L 494 744 
Q 775 591 1075 516 
Q 1375 441 1709 441 
Q 2250 441 2565 725 
Q 2881 1009 2881 1497 
Q 2881 1984 2565 2268 
Q 2250 2553 1709 2553 
Q 1456 2553 1204 2497 
Q 953 2441 691 2322 
L 691 4666 
z
" transform="scale(0.015625)"/>
      <path id="DejaVuSans-2d" d="M 313 2009 
L 1997 2009 
L 1997 1497 
L 313 1497 
L 313 2009 
z
" transform="scale(0.015625)"/>
      <path id="DejaVuSans-Oblique-3c3" d="M 2219 3044 
Q 1744 3044 1422 2700 
Q 1081 2341 969 1747 
Q 844 1119 1044 756 
Q 1241 397 1706 397 
Q 2166 397 2503 759 
Q 2844 1122 2966 1747 
Q 3075 2319 2881 2700 
Q 2700 3044 2219 3044 
z
M 2309 3503 
L 4219 3500 
L 4106 2925 
L 3463 2925 
Q 3706 2438 3575 1747 
Q 3406 888 2884 400 
Q 2359 -91 1609 -91 
Q 856 -91 525 400 
Q 194 888 363 1747 
Q 528 2609 1050 3097 
Q 1484 3503 2309 3503 
z
" transform="scale(0.015625)"/>
      <path id="DejaVuSans-37" d="M 525 4666 
L 3525 4666 
L 3525 4397 
L 1831 0 
L 1172 0 
L 2766 4134 
L 525 4134 
L 525 4666 
z
" transform="scale(0.015625)"/>
      <path id="DejaVuSans-Oblique-3b3" d="M 1491 2950 
L 1838 788 
L 3456 3500 
L 4066 3500 
L 1972 0 
L 1713 -1331 
L 1138 -1331 
L 1397 0 
L 988 2613 
Q 925 3006 628 3006 
L 475 3006 
L 569 3500 
L 788 3500 
Q 1403 3500 1491 2950 
z
" transform="scale(0.015625)"/>
     </defs>
     <use xlink:href="#DejaVuSans-4e" transform="translate(0 0.390625)"/>
     <use xlink:href="#DejaVuSans-20" transform="translate(74.804688 0.390625)"/>
     <use xlink:href="#DejaVuSans-3d" transform="translate(106.591797 0.390625)"/>
     <use xlink:href="#DejaVuSans-20" transform="translate(190.380859 0.390625)"/>
     <use xlink:href="#DejaVuSans-31" transform="translate(222.167969 0.390625)"/>
     <use xlink:href="#DejaVuSans-31" transform="translate(285.791016 0.390625)"/>
     <use xlink:href="#DejaVuSans-31" transform="translate(349.414062 0.390625)"/>
     <use xlink:href="#DejaVuSans-31" transform="translate(413.037109 0.390625)"/>
     <use xlink:href="#DejaVuSans-2c" transform="translate(476.660156 0.390625)"/>
     <use xlink:href="#DejaVuSans-20" transform="translate(508.447266 0.390625)"/>
     <use xlink:href="#DejaVuSans-Oblique-3b2" transform="translate(540.234375 0.390625)"/>
     <use xlink:href="#DejaVuSans-20" transform="translate(604.052734 0.390625)"/>
     <use xlink:href="#DejaVuSans-3d" transform="translate(635.839844 0.390625)"/>
     <use xlink:href="#DejaVuSans-20" transform="translate(719.628906 0.390625)"/>
     <use xlink:href="#DejaVuSans-38" transform="translate(751.416016 0.390625)"/>
     <use xlink:href="#DejaVuSans-2e" transform="translate(815.039062 0.390625)"/>
     <use xlink:href="#DejaVuSans-34" transform="translate(846.826172 0.390625)"/>
     <use xlink:href="#DejaVuSans-35" transform="translate(910.449219 0.390625)"/>
     <use xlink:href="#DejaVuSans-65" transform="translate(974.072266 0.390625)"/>
     <use xlink:href="#DejaVuSans-2d" transform="translate(1035.595703 0.390625)"/>
     <use xlink:href="#DejaVuSans-30" transform="translate(1071.679688 0.390625)"/>
     <use xlink:href="#DejaVuSans-36" transform="translate(1135.302734 0.390625)"/>
     <use xlink:href="#DejaVuSans-20" transform="translate(1198.925781 0.390625)"/>
     <use xlink:href="#DejaVuSans-2c" transform="translate(1230.712891 0.390625)"/>
     <use xlink:href="#DejaVuSans-20" transform="translate(1262.5 0.390625)"/>
     <use xlink:href="#DejaVuSans-Oblique-3c3" transform="translate(1294.287109 0.390625)"/>
     <use xlink:href="#DejaVuSans-20" transform="translate(1357.666016 0.390625)"/>
     <use xlink:href="#DejaVuSans-3d" transform="translate(1389.453125 0.390625)"/>
     <use xlink:href="#DejaVuSans-20" transform="translate(1473.242188 0.390625)"/>
     <use xlink:href="#DejaVuSans-20" transform="translate(1505.029297 0.390625)"/>
     <use xlink:href="#DejaVuSans-31" transform="translate(1536.816406 0.390625)"/>
     <use xlink:href="#DejaVuSans-2f" transform="translate(1600.439453 0.390625)"/>
     <use xlink:href="#DejaVuSans-31" transform="translate(1634.130859 0.390625)"/>
     <use xlink:href="#DejaVuSans-30" transform="translate(1697.753906 0.390625)"/>
     <use xlink:href="#DejaVuSans-37" transform="translate(1761.376953 0.390625)"/>
     <use xlink:href="#DejaVuSans-2c" transform="translate(1825 0.390625)"/>
     <use xlink:href="#DejaVuSans-20" transform="translate(1856.787109 0.390625)"/>
     <use xlink:href="#DejaVuSans-20" transform="translate(1888.574219 0.390625)"/>
     <use xlink:href="#DejaVuSans-Oblique-3b3" transform="translate(1920.361328 0.390625)"/>
     <use xlink:href="#DejaVuSans-20" transform="translate(1979.541016 0.390625)"/>
     <use xlink:href="#DejaVuSans-3d" transform="translate(2011.328125 0.390625)"/>
     <use xlink:href="#DejaVuSans-20" transform="translate(2095.117188 0.390625)"/>
     <use xlink:href="#DejaVuSans-30" transform="translate(2126.904297 0.390625)"/>
    </g>
    <!-- Initial Condition: 10 C, 1101 S -->
    <g style="fill: #262626" transform="translate(168.959531 35.472) scale(0.09 -0.09)">
     <defs>
      <path id="DejaVuSans-49" d="M 628 4666 
L 1259 4666 
L 1259 0 
L 628 0 
L 628 4666 
z
" transform="scale(0.015625)"/>
      <path id="DejaVuSans-6e" d="M 3513 2113 
L 3513 0 
L 2938 0 
L 2938 2094 
Q 2938 2591 2744 2837 
Q 2550 3084 2163 3084 
Q 1697 3084 1428 2787 
Q 1159 2491 1159 1978 
L 1159 0 
L 581 0 
L 581 3500 
L 1159 3500 
L 1159 2956 
Q 1366 3272 1645 3428 
Q 1925 3584 2291 3584 
Q 2894 3584 3203 3211 
Q 3513 2838 3513 2113 
z
" transform="scale(0.015625)"/>
      <path id="DejaVuSans-6c" d="M 603 4863 
L 1178 4863 
L 1178 0 
L 603 0 
L 603 4863 
z
" transform="scale(0.015625)"/>
      <path id="DejaVuSans-43" d="M 4122 4306 
L 4122 3641 
Q 3803 3938 3442 4084 
Q 3081 4231 2675 4231 
Q 1875 4231 1450 3742 
Q 1025 3253 1025 2328 
Q 1025 1406 1450 917 
Q 1875 428 2675 428 
Q 3081 428 3442 575 
Q 3803 722 4122 1019 
L 4122 359 
Q 3791 134 3420 21 
Q 3050 -91 2638 -91 
Q 1578 -91 968 557 
Q 359 1206 359 2328 
Q 359 3453 968 4101 
Q 1578 4750 2638 4750 
Q 3056 4750 3426 4639 
Q 3797 4528 4122 4306 
z
" transform="scale(0.015625)"/>
      <path id="DejaVuSans-3a" d="M 750 794 
L 1409 794 
L 1409 0 
L 750 0 
L 750 794 
z
M 750 3309 
L 1409 3309 
L 1409 2516 
L 750 2516 
L 750 3309 
z
" transform="scale(0.015625)"/>
      <path id="DejaVuSans-53" d="M 3425 4513 
L 3425 3897 
Q 3066 4069 2747 4153 
Q 2428 4238 2131 4238 
Q 1616 4238 1336 4038 
Q 1056 3838 1056 3469 
Q 1056 3159 1242 3001 
Q 1428 2844 1947 2747 
L 2328 2669 
Q 3034 2534 3370 2195 
Q 3706 1856 3706 1288 
Q 3706 609 3251 259 
Q 2797 -91 1919 -91 
Q 1588 -91 1214 -16 
Q 841 59 441 206 
L 441 856 
Q 825 641 1194 531 
Q 1563 422 1919 422 
Q 2459 422 2753 634 
Q 3047 847 3047 1241 
Q 3047 1584 2836 1778 
Q 2625 1972 2144 2069 
L 1759 2144 
Q 1053 2284 737 2584 
Q 422 2884 422 3419 
Q 422 4038 858 4394 
Q 1294 4750 2059 4750 
Q 2388 4750 2728 4690 
Q 3069 4631 3425 4513 
z
" transform="scale(0.015625)"/>
     </defs>
     <use xlink:href="#DejaVuSans-49"/>
     <use xlink:href="#DejaVuSans-6e" x="29.492188"/>
     <use xlink:href="#DejaVuSans-69" x="92.871094"/>
     <use xlink:href="#DejaVuSans-74" x="120.654297"/>
     <use xlink:href="#DejaVuSans-69" x="159.863281"/>
     <use xlink:href="#DejaVuSans-61" x="187.646484"/>
     <use xlink:href="#DejaVuSans-6c" x="248.925781"/>
     <use xlink:href="#DejaVuSans-20" x="276.708984"/>
     <use xlink:href="#DejaVuSans-43" x="308.496094"/>
     <use xlink:href="#DejaVuSans-6f" x="378.320312"/>
     <use xlink:href="#DejaVuSans-6e" x="439.501953"/>
     <use xlink:href="#DejaVuSans-64" x="502.880859"/>
     <use xlink:href="#DejaVuSans-69" x="566.357422"/>
     <use xlink:href="#DejaVuSans-74" x="594.140625"/>
     <use xlink:href="#DejaVuSans-69" x="633.349609"/>
     <use xlink:href="#DejaVuSans-6f" x="661.132812"/>
     <use xlink:href="#DejaVuSans-6e" x="722.314453"/>
     <use xlink:href="#DejaVuSans-3a" x="785.693359"/>
     <use xlink:href="#DejaVuSans-20" x="819.384766"/>
     <use xlink:href="#DejaVuSans-31" x="851.171875"/>
     <use xlink:href="#DejaVuSans-30" x="914.794922"/>
     <use xlink:href="#DejaVuSans-20" x="978.417969"/>
     <use xlink:href="#DejaVuSans-43" x="1010.205078"/>
     <use xlink:href="#DejaVuSans-2c" x="1080.029297"/>
     <use xlink:href="#DejaVuSans-20" x="1111.816406"/>
     <use xlink:href="#DejaVuSans-31" x="1143.603516"/>
     <use xlink:href="#DejaVuSans-31" x="1207.226562"/>
     <use xlink:href="#DejaVuSans-30" x="1270.849609"/>
     <use xlink:href="#DejaVuSans-31" x="1334.472656"/>
     <use xlink:href="#DejaVuSans-20" x="1398.095703"/>
     <use xlink:href="#DejaVuSans-53" x="1429.882812"/>
    </g>
   </g>
   <g id="legend_1">
    <g id="line2d_19">
     <path d="M 237.316875 144.431125 
L 247.316875 144.431125 
L 257.316875 144.431125 
" style="fill: none; stroke: #ff00ff; stroke-width: 1.5; stroke-linecap: round"/>
    </g>
    <g id="text_18">
     <!-- Cryptically Infected -->
     <g style="fill: #262626" transform="translate(265.316875 147.931125) scale(0.1 -0.1)">
      <defs>
       <path id="DejaVuSans-70" d="M 1159 525 
L 1159 -1331 
L 581 -1331 
L 581 3500 
L 1159 3500 
L 1159 2969 
Q 1341 3281 1617 3432 
Q 1894 3584 2278 3584 
Q 2916 3584 3314 3078 
Q 3713 2572 3713 1747 
Q 3713 922 3314 415 
Q 2916 -91 2278 -91 
Q 1894 -91 1617 61 
Q 1341 213 1159 525 
z
M 3116 1747 
Q 3116 2381 2855 2742 
Q 2594 3103 2138 3103 
Q 1681 3103 1420 2742 
Q 1159 2381 1159 1747 
Q 1159 1113 1420 752 
Q 1681 391 2138 391 
Q 2594 391 2855 752 
Q 3116 1113 3116 1747 
z
" transform="scale(0.015625)"/>
       <path id="DejaVuSans-63" d="M 3122 3366 
L 3122 2828 
Q 2878 2963 2633 3030 
Q 2388 3097 2138 3097 
Q 1578 3097 1268 2742 
Q 959 2388 959 1747 
Q 959 1106 1268 751 
Q 1578 397 2138 397 
Q 2388 397 2633 464 
Q 2878 531 3122 666 
L 3122 134 
Q 2881 22 2623 -34 
Q 2366 -91 2075 -91 
Q 1284 -91 818 406 
Q 353 903 353 1747 
Q 353 2603 823 3093 
Q 1294 3584 2113 3584 
Q 2378 3584 2631 3529 
Q 2884 3475 3122 3366 
z
" transform="scale(0.015625)"/>
      </defs>
      <use xlink:href="#DejaVuSans-43"/>
      <use xlink:href="#DejaVuSans-72" x="69.824219"/>
      <use xlink:href="#DejaVuSans-79" x="110.9375"/>
      <use xlink:href="#DejaVuSans-70" x="170.117188"/>
      <use xlink:href="#DejaVuSans-74" x="233.59375"/>
      <use xlink:href="#DejaVuSans-69" x="272.802734"/>
      <use xlink:href="#DejaVuSans-63" x="300.585938"/>
      <use xlink:href="#DejaVuSans-61" x="355.566406"/>
      <use xlink:href="#DejaVuSans-6c" x="416.845703"/>
      <use xlink:href="#DejaVuSans-6c" x="444.628906"/>
      <use xlink:href="#DejaVuSans-79" x="472.412109"/>
      <use xlink:href="#DejaVuSans-20" x="531.591797"/>
      <use xlink:href="#DejaVuSans-49" x="563.378906"/>
      <use xlink:href="#DejaVuSans-6e" x="592.871094"/>
      <use xlink:href="#DejaVuSans-66" x="656.25"/>
      <use xlink:href="#DejaVuSans-65" x="691.455078"/>
      <use xlink:href="#DejaVuSans-63" x="752.978516"/>
      <use xlink:href="#DejaVuSans-74" x="807.958984"/>
      <use xlink:href="#DejaVuSans-65" x="847.167969"/>
      <use xlink:href="#DejaVuSans-64" x="908.691406"/>
     </g>
    </g>
    <g id="line2d_20">
     <path d="M 237.316875 159.10925 
L 247.316875 159.10925 
L 257.316875 159.10925 
" style="fill: none; stroke: #008000; stroke-width: 1.5; stroke-linecap: round"/>
    </g>
    <g id="text_19">
     <!-- Symptomatically Infected -->
     <g style="fill: #262626" transform="translate(265.316875 162.60925) scale(0.1 -0.1)">
      <use xlink:href="#DejaVuSans-53"/>
      <use xlink:href="#DejaVuSans-79" x="63.476562"/>
      <use xlink:href="#DejaVuSans-6d" x="122.65625"/>
      <use xlink:href="#DejaVuSans-70" x="220.068359"/>
      <use xlink:href="#DejaVuSans-74" x="283.544922"/>
      <use xlink:href="#DejaVuSans-6f" x="322.753906"/>
      <use xlink:href="#DejaVuSans-6d" x="383.935547"/>
      <use xlink:href="#DejaVuSans-61" x="481.347656"/>
      <use xlink:href="#DejaVuSans-74" x="542.626953"/>
      <use xlink:href="#DejaVuSans-69" x="581.835938"/>
      <use xlink:href="#DejaVuSans-63" x="609.619141"/>
      <use xlink:href="#DejaVuSans-61" x="664.599609"/>
      <use xlink:href="#DejaVuSans-6c" x="725.878906"/>
      <use xlink:href="#DejaVuSans-6c" x="753.662109"/>
      <use xlink:href="#DejaVuSans-79" x="781.445312"/>
      <use xlink:href="#DejaVuSans-20" x="840.625"/>
      <use xlink:href="#DejaVuSans-49" x="872.412109"/>
      <use xlink:href="#DejaVuSans-6e" x="901.904297"/>
      <use xlink:href="#DejaVuSans-66" x="965.283203"/>
      <use xlink:href="#DejaVuSans-65" x="1000.488281"/>
      <use xlink:href="#DejaVuSans-63" x="1062.011719"/>
      <use xlink:href="#DejaVuSans-74" x="1116.992188"/>
      <use xlink:href="#DejaVuSans-65" x="1156.201172"/>
      <use xlink:href="#DejaVuSans-64" x="1217.724609"/>
     </g>
    </g>
    <g id="line2d_21">
     <path d="M 237.316875 173.787375 
L 247.316875 173.787375 
L 257.316875 173.787375 
" style="fill: none; stroke-dasharray: 5.55,2.4; stroke-dashoffset: 0; stroke: #008000; stroke-width: 1.5"/>
    </g>
    <g id="text_20">
     <!-- Total Infected  -->
     <g style="fill: #262626" transform="translate(265.316875 177.287375) scale(0.1 -0.1)">
      <use xlink:href="#DejaVuSans-54"/>
      <use xlink:href="#DejaVuSans-6f" x="44.083984"/>
      <use xlink:href="#DejaVuSans-74" x="105.265625"/>
      <use xlink:href="#DejaVuSans-61" x="144.474609"/>
      <use xlink:href="#DejaVuSans-6c" x="205.753906"/>
      <use xlink:href="#DejaVuSans-20" x="233.537109"/>
      <use xlink:href="#DejaVuSans-49" x="265.324219"/>
      <use xlink:href="#DejaVuSans-6e" x="294.816406"/>
      <use xlink:href="#DejaVuSans-66" x="358.195312"/>
      <use xlink:href="#DejaVuSans-65" x="393.400391"/>
      <use xlink:href="#DejaVuSans-63" x="454.923828"/>
      <use xlink:href="#DejaVuSans-74" x="509.904297"/>
      <use xlink:href="#DejaVuSans-65" x="549.113281"/>
      <use xlink:href="#DejaVuSans-64" x="610.636719"/>
      <use xlink:href="#DejaVuSans-20" x="674.113281"/>
     </g>
    </g>
    <g id="line2d_22">
     <path d="M 237.316875 188.4655 
L 247.316875 188.4655 
L 257.316875 188.4655 
" style="fill: none; stroke: #000000; stroke-width: 1.5; stroke-linecap: round"/>
    </g>
    <g id="text_21">
     <!-- Removed -->
     <g style="fill: #262626" transform="translate(265.316875 191.9655) scale(0.1 -0.1)">
      <defs>
       <path id="DejaVuSans-52" d="M 2841 2188 
Q 3044 2119 3236 1894 
Q 3428 1669 3622 1275 
L 4263 0 
L 3584 0 
L 2988 1197 
Q 2756 1666 2539 1819 
Q 2322 1972 1947 1972 
L 1259 1972 
L 1259 0 
L 628 0 
L 628 4666 
L 2053 4666 
Q 2853 4666 3247 4331 
Q 3641 3997 3641 3322 
Q 3641 2881 3436 2590 
Q 3231 2300 2841 2188 
z
M 1259 4147 
L 1259 2491 
L 2053 2491 
Q 2509 2491 2742 2702 
Q 2975 2913 2975 3322 
Q 2975 3731 2742 3939 
Q 2509 4147 2053 4147 
L 1259 4147 
z
" transform="scale(0.015625)"/>
       <path id="DejaVuSans-76" d="M 191 3500 
L 800 3500 
L 1894 563 
L 2988 3500 
L 3597 3500 
L 2284 0 
L 1503 0 
L 191 3500 
z
" transform="scale(0.015625)"/>
      </defs>
      <use xlink:href="#DejaVuSans-52"/>
      <use xlink:href="#DejaVuSans-65" x="64.982422"/>
      <use xlink:href="#DejaVuSans-6d" x="126.505859"/>
      <use xlink:href="#DejaVuSans-6f" x="223.917969"/>
      <use xlink:href="#DejaVuSans-76" x="285.099609"/>
      <use xlink:href="#DejaVuSans-65" x="344.279297"/>
      <use xlink:href="#DejaVuSans-64" x="405.802734"/>
     </g>
    </g>
    <g id="PathCollection_2">
     <g>
      <use xlink:href="#mde6cafbc18" x="247.316875" y="204.018625" style="fill: #1f77b4; stroke: #1f77b4"/>
     </g>
    </g>
    <g id="text_22">
     <!-- 1/2 hosts infected, t = 500d -->
     <g style="fill: #262626" transform="translate(265.316875 206.643625) scale(0.1 -0.1)">
      <use xlink:href="#DejaVuSans-31"/>
      <use xlink:href="#DejaVuSans-2f" x="63.623047"/>
      <use xlink:href="#DejaVuSans-32" x="97.314453"/>
      <use xlink:href="#DejaVuSans-20" x="160.9375"/>
      <use xlink:href="#DejaVuSans-68" x="192.724609"/>
      <use xlink:href="#DejaVuSans-6f" x="256.103516"/>
      <use xlink:href="#DejaVuSans-73" x="317.285156"/>
      <use xlink:href="#DejaVuSans-74" x="369.384766"/>
      <use xlink:href="#DejaVuSans-73" x="408.59375"/>
      <use xlink:href="#DejaVuSans-20" x="460.693359"/>
      <use xlink:href="#DejaVuSans-69" x="492.480469"/>
      <use xlink:href="#DejaVuSans-6e" x="520.263672"/>
      <use xlink:href="#DejaVuSans-66" x="583.642578"/>
      <use xlink:href="#DejaVuSans-65" x="618.847656"/>
      <use xlink:href="#DejaVuSans-63" x="680.371094"/>
      <use xlink:href="#DejaVuSans-74" x="735.351562"/>
      <use xlink:href="#DejaVuSans-65" x="774.560547"/>
      <use xlink:href="#DejaVuSans-64" x="836.083984"/>
      <use xlink:href="#DejaVuSans-2c" x="899.560547"/>
      <use xlink:href="#DejaVuSans-20" x="931.347656"/>
      <use xlink:href="#DejaVuSans-74" x="963.134766"/>
      <use xlink:href="#DejaVuSans-20" x="1002.34375"/>
      <use xlink:href="#DejaVuSans-3d" x="1034.130859"/>
      <use xlink:href="#DejaVuSans-20" x="1117.919922"/>
      <use xlink:href="#DejaVuSans-35" x="1149.707031"/>
      <use xlink:href="#DejaVuSans-30" x="1213.330078"/>
      <use xlink:href="#DejaVuSans-30" x="1276.953125"/>
      <use xlink:href="#DejaVuSans-64" x="1340.576172"/>
     </g>
    </g>
   </g>
  </g>
  <g id="text_23">
   <!-- Deterministic SCIR Solution: No Control Implemented -->
   <g style="fill: #262626" transform="translate(97.152344 14.510437) scale(0.1 -0.1)">
    <defs>
     <path id="DejaVuSans-44" d="M 1259 4147 
L 1259 519 
L 2022 519 
Q 2988 519 3436 956 
Q 3884 1394 3884 2338 
Q 3884 3275 3436 3711 
Q 2988 4147 2022 4147 
L 1259 4147 
z
M 628 4666 
L 1925 4666 
Q 3281 4666 3915 4102 
Q 4550 3538 4550 2338 
Q 4550 1131 3912 565 
Q 3275 0 1925 0 
L 628 0 
L 628 4666 
z
" transform="scale(0.015625)"/>
    </defs>
    <use xlink:href="#DejaVuSans-44"/>
    <use xlink:href="#DejaVuSans-65" x="77.001953"/>
    <use xlink:href="#DejaVuSans-74" x="138.525391"/>
    <use xlink:href="#DejaVuSans-65" x="177.734375"/>
    <use xlink:href="#DejaVuSans-72" x="239.257812"/>
    <use xlink:href="#DejaVuSans-6d" x="278.621094"/>
    <use xlink:href="#DejaVuSans-69" x="376.033203"/>
    <use xlink:href="#DejaVuSans-6e" x="403.816406"/>
    <use xlink:href="#DejaVuSans-69" x="467.195312"/>
    <use xlink:href="#DejaVuSans-73" x="494.978516"/>
    <use xlink:href="#DejaVuSans-74" x="547.078125"/>
    <use xlink:href="#DejaVuSans-69" x="586.287109"/>
    <use xlink:href="#DejaVuSans-63" x="614.070312"/>
    <use xlink:href="#DejaVuSans-20" x="669.050781"/>
    <use xlink:href="#DejaVuSans-53" x="700.837891"/>
    <use xlink:href="#DejaVuSans-43" x="764.314453"/>
    <use xlink:href="#DejaVuSans-49" x="834.138672"/>
    <use xlink:href="#DejaVuSans-52" x="863.630859"/>
    <use xlink:href="#DejaVuSans-20" x="933.113281"/>
    <use xlink:href="#DejaVuSans-53" x="964.900391"/>
    <use xlink:href="#DejaVuSans-6f" x="1028.376953"/>
    <use xlink:href="#DejaVuSans-6c" x="1089.558594"/>
    <use xlink:href="#DejaVuSans-75" x="1117.341797"/>
    <use xlink:href="#DejaVuSans-74" x="1180.720703"/>
    <use xlink:href="#DejaVuSans-69" x="1219.929688"/>
    <use xlink:href="#DejaVuSans-6f" x="1247.712891"/>
    <use xlink:href="#DejaVuSans-6e" x="1308.894531"/>
    <use xlink:href="#DejaVuSans-3a" x="1372.273438"/>
    <use xlink:href="#DejaVuSans-20" x="1405.964844"/>
    <use xlink:href="#DejaVuSans-4e" x="1437.751953"/>
    <use xlink:href="#DejaVuSans-6f" x="1512.556641"/>
    <use xlink:href="#DejaVuSans-20" x="1573.738281"/>
    <use xlink:href="#DejaVuSans-43" x="1605.525391"/>
    <use xlink:href="#DejaVuSans-6f" x="1675.349609"/>
    <use xlink:href="#DejaVuSans-6e" x="1736.53125"/>
    <use xlink:href="#DejaVuSans-74" x="1799.910156"/>
    <use xlink:href="#DejaVuSans-72" x="1839.119141"/>
    <use xlink:href="#DejaVuSans-6f" x="1877.982422"/>
    <use xlink:href="#DejaVuSans-6c" x="1939.164062"/>
    <use xlink:href="#DejaVuSans-20" x="1966.947266"/>
    <use xlink:href="#DejaVuSans-49" x="1998.734375"/>
    <use xlink:href="#DejaVuSans-6d" x="2028.226562"/>
    <use xlink:href="#DejaVuSans-70" x="2125.638672"/>
    <use xlink:href="#DejaVuSans-6c" x="2189.115234"/>
    <use xlink:href="#DejaVuSans-65" x="2216.898438"/>
    <use xlink:href="#DejaVuSans-6d" x="2278.421875"/>
    <use xlink:href="#DejaVuSans-65" x="2375.833984"/>
    <use xlink:href="#DejaVuSans-6e" x="2437.357422"/>
    <use xlink:href="#DejaVuSans-74" x="2500.736328"/>
    <use xlink:href="#DejaVuSans-65" x="2539.945312"/>
    <use xlink:href="#DejaVuSans-64" x="2601.46875"/>
   </g>
   <!--  -->
   <g style="fill: #262626" transform="translate(230.4 25.70825) scale(0.1 -0.1)"/>
   <!--  -->
   <g style="fill: #262626" transform="translate(230.4 36.906062) scale(0.1 -0.1)"/>
  </g>
 </g>
 <defs>
  <clipPath id="p4b533b0169">
   <rect x="57.6" y="41.472" width="357.12" height="266.112"/>
  </clipPath>
 </defs>
</svg>
